<svg xmlns="http://www.w3.org/2000/svg" version="1.1" xmlns:xlink="http://www.w3.org/1999/xlink" xmlns:svgjs="http://svgjs.dev/svgjs" width="1500" height="1231" viewBox="0 0 1500 1231"><g transform="matrix(1,0,0,1,-0.20494932695419266,-1.9854838709677551)"><svg viewBox="0 0 302 248" data-background-color="#581381" preserveAspectRatio="xMidYMid meet" height="1231" width="1500" xmlns="http://www.w3.org/2000/svg" xmlns:xlink="http://www.w3.org/1999/xlink"><g id="tight-bounds" transform="matrix(1,0,0,1,0.0412631311601217,0.4000000000000057)"><svg viewBox="0 0 301.91747373767976 247.2" height="247.2" width="301.91747373767976"><g><svg viewBox="0 0 395.52 323.83863971036476" height="247.2" width="301.91747373767976"><g transform="matrix(1,0,0,1,0,237.93418569129622)"><svg viewBox="0 0 395.52 85.90445401906851" height="85.90445401906851" width="395.52"><g id="textblocktransform"><svg viewBox="0 0 395.52 85.90445401906851" height="85.90445401906851" width="395.52" id="textblock"><g><svg viewBox="0 0 395.52 58.27494584837545" height="58.27494584837545" width="395.52"><g transform="matrix(1,0,0,1,0,0)"><svg width="395.52" viewBox="2.1 -32.3 221.58 32.65" height="58.27494584837545" data-palette-color="#f5a1e8"><path d="M13.35-32.3Q16.8-32.3 20.5-30.8L20.5-30.8 19.85-26.95 19.15-26.75Q17.7-27.85 16.07-28.45 14.45-29.05 12.85-29.05L12.85-29.05Q11-29.05 9.63-28.3 8.25-27.55 7.53-26.35 6.8-25.15 6.8-23.85L6.8-23.85Q6.8-22.5 7.63-21.48 8.45-20.45 9.7-19.7 10.95-18.95 13.1-17.9L13.1-17.9Q15.8-16.65 17.45-15.58 19.1-14.5 20.28-12.85 21.45-11.2 21.45-8.85L21.45-8.85Q21.45-6.35 20.1-4.25 18.75-2.15 16.3-0.9 13.85 0.35 10.7 0.35L10.7 0.35Q8.6 0.35 6.33-0.23 4.05-0.8 2.1-1.9L2.1-1.9 2.6-6 3.15-6.25Q4.9-4.55 7.03-3.73 9.15-2.9 11.1-2.9L11.1-2.9Q13-2.9 14.48-3.65 15.95-4.4 16.73-5.65 17.5-6.9 17.5-8.3L17.5-8.3Q17.5-10.4 15.9-11.68 14.3-12.95 11.05-14.45L11.05-14.45Q8.4-15.75 6.8-16.78 5.2-17.8 4.05-19.43 2.9-21.05 2.9-23.4L2.9-23.4Q2.9-25.85 4.23-27.9 5.55-29.95 7.93-31.13 10.3-32.3 13.35-32.3L13.35-32.3ZM37.9-25.2Q43.35-25.2 46.27-22 49.2-18.8 49.2-12.95L49.2-12.95Q49.2-6.6 46.07-3.13 42.95 0.35 37.15 0.35L37.15 0.35Q31.75 0.35 28.8-2.93 25.85-6.2 25.85-12.25L25.85-12.25Q25.85-18.45 29-21.83 32.15-25.2 37.9-25.2L37.9-25.2ZM37.55-22.05Q33.6-22.05 31.67-19.8 29.75-17.55 29.75-12.7L29.75-12.7Q29.75-7.5 31.65-5.15 33.55-2.8 37.45-2.8L37.45-2.8Q41.45-2.8 43.4-5.1 45.35-7.4 45.35-12.3L45.35-12.3Q45.35-17.35 43.42-19.7 41.5-22.05 37.55-22.05L37.55-22.05ZM69.15-3.15L69.35-2.8 69.1 0 55.85 0 56-7.5 55.85-24.9 59.6-24.9 59.45-7.8 59.55-3.15 69.15-3.15ZM85.44-24.9L94.19 0 90.44 0 89.84-2.7 88.54-6.4 82.59-6.45 77.29-6.4 75.94-2.9 75.24 0 71.54 0 81.14-24.9 85.44-24.9ZM82.89-9.4L87.49-9.45 83.34-21.25 83.04-21.25 78.49-9.45 82.89-9.4ZM111.84-10.05Q114.89-5.4 118.59-0.9L118.59-0.9 118.54-0.4Q116.44 0.25 115.09 0.35L115.09 0.35 114.44-0.05Q110.64-5.8 108.69-9.1L108.69-9.1 103.99-9.05 103.99-7.8 104.09 0 100.39 0 100.54-7.5 100.39-24.9 108.89-24.95Q112.84-24.95 114.97-23.1 117.09-21.25 117.09-17.75L117.09-17.75Q117.09-15.2 115.72-13.2 114.34-11.2 111.84-10.05L111.84-10.05ZM104.09-21.9L104.04-12.15 108.74-12Q113.19-13.25 113.19-17.45L113.19-17.45Q113.19-19.65 111.89-20.75 110.59-21.85 107.94-21.95L107.94-21.95 104.09-21.9ZM135.84-24.9L144.59 0 140.84 0 140.24-2.7 138.94-6.4 132.99-6.45 127.69-6.4 126.34-2.9 125.64 0 121.94 0 131.54-24.9 135.84-24.9ZM133.29-9.4L137.89-9.45 133.74-21.25 133.44-21.25 128.89-9.45 133.29-9.4ZM168.98-32.1Q173.68-32.1 176.23-29.68 178.78-27.25 178.78-22.7L178.78-22.7Q178.78-17.35 175.61-14.3 172.43-11.25 166.83-11.25L166.83-11.25 163.03-11.25 163.03-10 163.23 0 159.18 0 159.43-9.65 159.18-32.05 168.98-32.1ZM168.33-14.5Q171.43-15 173.06-17 174.68-19 174.68-22.35L174.68-22.35Q174.68-28.55 168.08-28.8L168.08-28.8 163.23-28.65 163.08-14.6 168.33-14.5ZM193.18-24.9L201.93 0 198.18 0 197.58-2.7 196.28-6.4 190.33-6.45 185.03-6.4 183.68-2.9 182.98 0 179.28 0 188.88-24.9 193.18-24.9ZM190.63-9.4L195.23-9.45 191.08-21.25 190.78-21.25 186.23-9.45 190.63-9.4ZM214.43-8.7L214.38-7.15 214.53 0 210.78 0 210.98-7.15 210.93-8.7 202.48-24.9 206.58-24.9 207.08-23.45 212.68-12.75 212.93-12.75 219.03-23.3 219.68-24.9 223.68-24.9 214.43-8.7Z" opacity="1" transform="matrix(1,0,0,1,0,0)" fill="#f5a1e8" class="wordmark-text-0" data-fill-palette-color="primary" id="text-0"></path></svg></g></svg></g><g transform="matrix(1,0,0,1,75.54432,72.03226196447653)"><svg viewBox="0 0 244.43135999999998 13.87219205459198" height="13.87219205459198" width="244.43135999999998"><g transform="matrix(1,0,0,1,0,0)"><svg width="244.43135999999998" viewBox="4.55 -37.3 879.1600000000001 49.9" height="13.87219205459198" data-palette-color="#f5a1e8"><path d="M4.55 0L4.55-36.75 10.15-36.75 10.15 0 4.55 0ZM18.25 0L18.25-22.95 23.55-22.95 23.6-18.75Q24.55-20.85 26.6-22.2 28.65-23.55 31.4-23.55L31.4-23.55Q34.95-23.55 36.85-22.08 38.75-20.6 39.4-17.95 40.05-15.3 40.05-11.05L40.05-11.05 40.05 0 34.65 0 34.65-10.9Q34.65-15.25 33.8-17.18 32.95-19.1 30.3-19.1L30.3-19.1Q28.8-19.1 27.25-18.18 25.7-17.25 24.67-15.5 23.65-13.75 23.65-11.4L23.65-11.4 23.65 0 18.25 0ZM54.9 0.5Q52.5 0.5 49.92-0.13 47.35-0.75 46.25-1.6L46.25-1.6 48.05-5.85Q51.05-3.75 54.9-3.75L54.9-3.75Q58.75-3.75 58.75-6L58.75-6Q58.75-7 57.95-7.55 57.15-8.1 55.1-8.85L55.1-8.85 53.2-9.55Q50.2-10.75 48.45-12.43 46.7-14.1 46.7-16.85L46.7-16.85Q46.7-20 49.17-21.78 51.65-23.55 55.8-23.55L55.8-23.55Q57.85-23.55 59.82-23.1 61.8-22.65 62.85-21.95L62.85-21.95 60.9-17.65Q60.25-18.3 58.82-18.78 57.4-19.25 55.65-19.25L55.65-19.25Q52.1-19.25 52.1-17.1L52.1-17.1Q52.1-15.9 53.05-15.28 54-14.65 56.15-13.9L56.15-13.9Q56.35-13.85 57.7-13.35L57.7-13.35Q60.9-12.1 62.45-10.5 64-8.9 64-6.4L64-6.4Q64-3 61.42-1.25 58.85 0.5 54.9 0.5L54.9 0.5ZM71.59 0L71.59-18.55 67.54-18.55 67.54-22.95 71.59-22.95 71.59-32.3 77.04-33.5 77.04-22.95 82.34-22.95 82.34-18.55 77.04-18.55 77.04 0 71.59 0ZM96.89 0.5Q93.79 0.5 91.17-0.98 88.54-2.45 86.97-5.18 85.39-7.9 85.39-11.55L85.39-11.55Q85.39-15.15 86.77-17.85 88.14-20.55 90.69-22.05 93.24-23.55 96.69-23.55L96.69-23.55Q98.69-23.55 100.44-22.85 102.19-22.15 103.39-21.13 104.59-20.1 104.99-19.1L104.99-19.1 105.09-22.95 110.24-22.95 110.24 0 105.14 0 105.04-4.05Q104.19-2.25 101.94-0.88 99.69 0.5 96.89 0.5L96.89 0.5ZM97.79-4Q100.64-4 102.59-5.98 104.54-7.95 104.54-11.15L104.54-11.15 104.54-11.5Q104.54-13.65 103.64-15.35 102.74-17.05 101.19-18 99.64-18.95 97.79-18.95L97.79-18.95Q94.59-18.95 92.84-16.88 91.09-14.8 91.09-11.5L91.09-11.5Q91.09-8.15 92.82-6.08 94.54-4 97.79-4L97.79-4ZM117.49 0L117.49-22.95 122.79-22.95 122.84-18.75Q123.79-20.85 125.84-22.2 127.89-23.55 130.64-23.55L130.64-23.55Q134.19-23.55 136.09-22.08 137.99-20.6 138.64-17.95 139.29-15.3 139.29-11.05L139.29-11.05 139.29 0 133.89 0 133.89-10.9Q133.89-15.25 133.04-17.18 132.19-19.1 129.54-19.1L129.54-19.1Q128.04-19.1 126.49-18.18 124.94-17.25 123.91-15.5 122.89-13.75 122.89-11.4L122.89-11.4 122.89 0 117.49 0ZM148.24 0L148.24-18.55 144.19-18.55 144.19-22.95 148.24-22.95 148.24-32.3 153.69-33.5 153.69-22.95 158.99-22.95 158.99-18.55 153.69-18.55 153.69 0 148.24 0ZM161.43 8.35Q163.43 4.05 164.48 0.4L164.48 0.4Q162.13-0.35 162.13-3.05L162.13-3.05Q162.13-4.6 163.16-5.63 164.18-6.65 165.73-6.65L165.73-6.65Q167.33-6.65 168.28-5.48 169.23-4.3 169.23-2.1L169.23-2.1Q169.23 0.15 167.86 3 166.48 5.85 164.68 8.35L164.68 8.35 161.43 8.35ZM188.58 12.15L188.58-22.95 193.78-22.95 193.78-18.7Q196.53-23.55 202.38-23.55L202.38-23.55Q207.23-23.55 210.23-20.48 213.23-17.4 213.23-11.6L213.23-11.6Q213.23-8 211.75-5.25 210.28-2.5 207.75-1 205.23 0.5 202.13 0.5L202.13 0.5Q199.23 0.5 197.1-0.53 194.98-1.55 193.78-3.45L193.78-3.45 193.83 12.15 188.58 12.15ZM200.88-4.05Q204.13-4.05 205.88-6.13 207.63-8.2 207.63-11.45L207.63-11.45Q207.63-14.85 205.9-16.88 204.18-18.9 200.88-18.9L200.88-18.9Q199.08-18.9 197.5-18.03 195.93-17.15 195-15.53 194.08-13.9 194.08-11.75L194.08-11.75 194.08-11.4Q194.08-9.25 195-7.58 195.93-5.9 197.48-4.98 199.03-4.05 200.88-4.05L200.88-4.05ZM229.83 0.5Q225.73 0.5 222.98-1.13 220.23-2.75 218.93-5.48 217.63-8.2 217.63-11.45L217.63-11.45Q217.63-15.1 219.15-17.85 220.68-20.6 223.38-22.08 226.08-23.55 229.48-23.55L229.48-23.55Q234.78-23.55 237.35-20.63 239.93-17.7 239.93-12.4L239.93-12.4Q239.93-11.05 239.78-9.6L239.78-9.6 223.28-9.6Q223.83-6.55 225.45-5.2 227.08-3.85 229.98-3.85L229.98-3.85Q232.38-3.85 233.93-4.25 235.48-4.65 236.78-5.35L236.78-5.35 238.43-1.5Q237.18-0.7 235.03-0.1 232.88 0.5 229.83 0.5L229.83 0.5ZM223.28-13.35L234.68-13.35Q234.73-16.45 233.33-17.73 231.93-19 229.33-19L229.33-19Q224.08-19 223.28-13.35L223.28-13.35ZM245.42 0L245.42-22.95 250.82-22.95 250.82-18.45Q251.62-20.75 253.42-22.15 255.22-23.55 257.52-23.55L257.52-23.55Q259.12-23.55 259.72-23.25L259.72-23.25 258.97-17.8Q258.52-18.1 257.02-18.1L257.02-18.1Q254.67-18.1 252.75-16.6 250.82-15.1 250.82-11.8L250.82-11.8 250.82 0 245.42 0ZM271.42 0.5Q269.02 0.5 266.45-0.13 263.87-0.75 262.77-1.6L262.77-1.6 264.57-5.85Q267.57-3.75 271.42-3.75L271.42-3.75Q275.27-3.75 275.27-6L275.27-6Q275.27-7 274.47-7.55 273.67-8.1 271.62-8.85L271.62-8.85 269.72-9.55Q266.72-10.75 264.97-12.43 263.22-14.1 263.22-16.85L263.22-16.85Q263.22-20 265.7-21.78 268.17-23.55 272.32-23.55L272.32-23.55Q274.37-23.55 276.35-23.1 278.32-22.65 279.37-21.95L279.37-21.95 277.42-17.65Q276.77-18.3 275.35-18.78 273.92-19.25 272.17-19.25L272.17-19.25Q268.62-19.25 268.62-17.1L268.62-17.1Q268.62-15.9 269.57-15.28 270.52-14.65 272.67-13.9L272.67-13.9Q272.87-13.85 274.22-13.35L274.22-13.35Q277.42-12.1 278.97-10.5 280.52-8.9 280.52-6.4L280.52-6.4Q280.52-3 277.95-1.25 275.37 0.5 271.42 0.5L271.42 0.5ZM296.82 0.5Q293.27 0.5 290.52-1.1 287.77-2.7 286.27-5.45 284.77-8.2 284.77-11.55L284.77-11.55Q284.77-14.85 286.24-17.6 287.72-20.35 290.47-21.95 293.22-23.55 296.82-23.55L296.82-23.55Q300.42-23.55 303.14-21.95 305.87-20.35 307.34-17.6 308.82-14.85 308.82-11.55L308.82-11.55Q308.82-8.2 307.32-5.45 305.82-2.7 303.09-1.1 300.37 0.5 296.82 0.5L296.82 0.5ZM296.97-3.9Q299.87-3.9 301.54-6.05 303.22-8.2 303.22-11.45L303.22-11.45Q303.22-14.7 301.42-16.93 299.62-19.15 296.67-19.15L296.67-19.15Q293.82-19.15 292.09-16.95 290.37-14.75 290.37-11.45L290.37-11.45Q290.37-8.25 292.22-6.08 294.07-3.9 296.97-3.9L296.97-3.9ZM314.57 0L314.57-22.95 319.87-22.95 319.92-18.75Q320.87-20.85 322.92-22.2 324.97-23.55 327.72-23.55L327.72-23.55Q331.27-23.55 333.17-22.08 335.07-20.6 335.72-17.95 336.37-15.3 336.37-11.05L336.37-11.05 336.37 0 330.97 0 330.97-10.9Q330.97-15.25 330.12-17.18 329.27-19.1 326.62-19.1L326.62-19.1Q325.12-19.1 323.57-18.18 322.02-17.25 320.99-15.5 319.97-13.75 319.97-11.4L319.97-11.4 319.97 0 314.57 0ZM353.46 0.5Q350.36 0.5 347.74-0.98 345.11-2.45 343.54-5.18 341.96-7.9 341.96-11.55L341.96-11.55Q341.96-15.15 343.34-17.85 344.71-20.55 347.26-22.05 349.81-23.55 353.26-23.55L353.26-23.55Q355.26-23.55 357.01-22.85 358.76-22.15 359.96-21.13 361.16-20.1 361.56-19.1L361.56-19.1 361.66-22.95 366.81-22.95 366.81 0 361.71 0 361.61-4.05Q360.76-2.25 358.51-0.88 356.26 0.5 353.46 0.5L353.46 0.5ZM354.36-4Q357.21-4 359.16-5.98 361.11-7.95 361.11-11.15L361.11-11.15 361.11-11.5Q361.11-13.65 360.21-15.35 359.31-17.05 357.76-18 356.21-18.95 354.36-18.95L354.36-18.95Q351.16-18.95 349.41-16.88 347.66-14.8 347.66-11.5L347.66-11.5Q347.66-8.15 349.39-6.08 351.11-4 354.36-4L354.36-4ZM374.51 0L374.51-36.75 379.86-36.75 379.86 0 374.51 0ZM387.86 0L387.86-22.95 393.46-22.95 393.46 0 387.86 0ZM390.61-27.25Q389.06-27.25 388.01-28.3 386.96-29.35 386.96-30.9L386.96-30.9Q386.96-32.3 388.01-33.3 389.06-34.3 390.61-34.3L390.61-34.3Q392.11-34.3 393.16-33.3 394.21-32.3 394.21-30.9L394.21-30.9Q394.21-29.35 393.18-28.3 392.16-27.25 390.61-27.25L390.61-27.25ZM398.41 0L408.86-16.85 410.11-18.65 404.56-18.5 400.61-18.5 400.61-22.95 418.46-22.95 408.11-6.05 406.86-4.15 412.26-4.35 418.06-4.45 418.06 0 398.41 0ZM434.4 0.5Q430.3 0.5 427.55-1.13 424.8-2.75 423.5-5.48 422.2-8.2 422.2-11.45L422.2-11.45Q422.2-15.1 423.73-17.85 425.25-20.6 427.95-22.08 430.65-23.55 434.05-23.55L434.05-23.55Q439.35-23.55 441.93-20.63 444.5-17.7 444.5-12.4L444.5-12.4Q444.5-11.05 444.35-9.6L444.35-9.6 427.85-9.6Q428.4-6.55 430.03-5.2 431.65-3.85 434.55-3.85L434.55-3.85Q436.95-3.85 438.5-4.25 440.05-4.65 441.35-5.35L441.35-5.35 443-1.5Q441.75-0.7 439.6-0.1 437.45 0.5 434.4 0.5L434.4 0.5ZM427.85-13.35L439.25-13.35Q439.3-16.45 437.9-17.73 436.5-19 433.9-19L433.9-19Q428.65-19 427.85-13.35L427.85-13.35ZM460.3 0.5Q457.2 0.5 454.58-0.98 451.95-2.45 450.38-5.18 448.8-7.9 448.8-11.55L448.8-11.55Q448.8-17 451.85-20.28 454.9-23.55 460.1-23.55L460.1-23.55Q463-23.55 465.4-22.13 467.8-20.7 468.65-18.7L468.65-18.7 468.4-22.6 468.4-36.75 473.7-36.75 473.7 0 468.55 0 468.45-4.05Q467.6-2.25 465.35-0.88 463.1 0.5 460.3 0.5L460.3 0.5ZM461.2-4.05Q464.05-4.05 466-6.03 467.95-8 467.95-11.2L467.95-11.2 467.95-11.55Q467.95-13.7 467.05-15.4 466.15-17.1 464.6-18.05 463.05-19 461.2-19L461.2-19Q458-19 456.25-16.93 454.5-14.85 454.5-11.55L454.5-11.55Q454.5-8.2 456.23-6.13 457.95-4.05 461.2-4.05L461.2-4.05ZM501.9 0.5Q498.9 0.5 495.95-0.55 493-1.6 491.7-2.9L491.7-2.9 494.35-7.65Q495.4-6.7 497.62-5.68 499.85-4.65 501.9-4.65L501.9-4.65Q504.55-4.65 506.22-5.9 507.9-7.15 507.9-9.35L507.9-9.35Q507.9-11.05 507-12.3 506.1-13.55 504.8-14.38 503.5-15.2 501.1-16.4L501.1-16.4Q498.25-17.8 497.2-18.5L497.2-18.5Q492.35-21.75 492.35-27.5L492.35-27.5Q492.35-32.25 495.5-34.77 498.65-37.3 503.45-37.3L503.45-37.3Q508.6-37.3 512.2-34.35L512.2-34.35 509.55-29.8Q508.6-30.8 506.87-31.53 505.15-32.25 503.2-32.25L503.2-32.25Q500.7-32.25 499.27-31.13 497.85-30 497.85-27.8L497.85-27.8Q497.85-26.25 498.75-25.03 499.65-23.8 501.02-22.9 502.4-22 504.75-20.7L504.75-20.7Q507-19.45 508.2-18.73 509.4-18 510.45-17L510.45-17Q511.9-15.7 512.8-13.9 513.7-12.1 513.7-9.95L513.7-9.95Q513.7-6.6 512.17-4.25 510.65-1.9 507.97-0.7 505.3 0.5 501.9 0.5L501.9 0.5ZM530.04 0.5Q526.49 0.5 523.74-1.1 520.99-2.7 519.49-5.45 517.99-8.2 517.99-11.55L517.99-11.55Q517.99-14.85 519.47-17.6 520.94-20.35 523.69-21.95 526.44-23.55 530.04-23.55L530.04-23.55Q533.64-23.55 536.37-21.95 539.09-20.35 540.57-17.6 542.04-14.85 542.04-11.55L542.04-11.55Q542.04-8.2 540.54-5.45 539.04-2.7 536.32-1.1 533.59 0.5 530.04 0.5L530.04 0.5ZM530.19-3.9Q533.09-3.9 534.77-6.05 536.44-8.2 536.44-11.45L536.44-11.45Q536.44-14.7 534.64-16.93 532.84-19.15 529.89-19.15L529.89-19.15Q527.04-19.15 525.32-16.95 523.59-14.75 523.59-11.45L523.59-11.45Q523.59-8.25 525.44-6.08 527.29-3.9 530.19-3.9L530.19-3.9ZM548.24 0L548.24-36.75 553.59-36.75 553.59 0 548.24 0ZM571.34 0.5Q568.24 0.5 565.61-0.98 562.99-2.45 561.41-5.18 559.84-7.9 559.84-11.55L559.84-11.55Q559.84-15.15 561.21-17.85 562.59-20.55 565.14-22.05 567.69-23.55 571.14-23.55L571.14-23.55Q573.14-23.55 574.89-22.85 576.64-22.15 577.84-21.13 579.04-20.1 579.44-19.1L579.44-19.1 579.54-22.95 584.69-22.95 584.69 0 579.59 0 579.49-4.05Q578.64-2.25 576.39-0.88 574.14 0.5 571.34 0.5L571.34 0.5ZM572.24-4Q575.09-4 577.04-5.98 578.99-7.95 578.99-11.15L578.99-11.15 578.99-11.5Q578.99-13.65 578.09-15.35 577.19-17.05 575.64-18 574.09-18.95 572.24-18.95L572.24-18.95Q569.04-18.95 567.29-16.88 565.54-14.8 565.54-11.5L565.54-11.5Q565.54-8.15 567.26-6.08 568.99-4 572.24-4L572.24-4ZM591.93 0L591.93-22.95 597.23-22.95 597.28-18.75Q598.23-20.85 600.28-22.2 602.33-23.55 605.08-23.55L605.08-23.55Q608.63-23.55 610.53-22.08 612.43-20.6 613.08-17.95 613.73-15.3 613.73-11.05L613.73-11.05 613.73 0 608.33 0 608.33-10.9Q608.33-15.25 607.48-17.18 606.63-19.1 603.98-19.1L603.98-19.1Q602.48-19.1 600.93-18.18 599.38-17.25 598.36-15.5 597.33-13.75 597.33-11.4L597.33-11.4 597.33 0 591.93 0ZM630.83 0.5Q627.73 0.5 625.11-0.98 622.48-2.45 620.91-5.18 619.33-7.9 619.33-11.55L619.33-11.55Q619.33-15.15 620.71-17.85 622.08-20.55 624.63-22.05 627.18-23.55 630.63-23.55L630.63-23.55Q632.63-23.55 634.38-22.85 636.13-22.15 637.33-21.13 638.53-20.1 638.93-19.1L638.93-19.1 639.03-22.95 644.18-22.95 644.18 0 639.08 0 638.98-4.05Q638.13-2.25 635.88-0.88 633.63 0.5 630.83 0.5L630.83 0.5ZM631.73-4Q634.58-4 636.53-5.98 638.48-7.95 638.48-11.15L638.48-11.15 638.48-11.5Q638.48-13.65 637.58-15.35 636.68-17.05 635.13-18 633.58-18.95 631.73-18.95L631.73-18.95Q628.53-18.95 626.78-16.88 625.03-14.8 625.03-11.5L625.03-11.5Q625.03-8.15 626.76-6.08 628.48-4 631.73-4L631.73-4ZM663.78 12.15L663.78-22.95 668.98-22.95 668.98-18.7Q671.73-23.55 677.58-23.55L677.58-23.55Q682.43-23.55 685.43-20.48 688.43-17.4 688.43-11.6L688.43-11.6Q688.43-8 686.95-5.25 685.48-2.5 682.95-1 680.43 0.5 677.33 0.5L677.33 0.5Q674.43 0.5 672.3-0.53 670.18-1.55 668.98-3.45L668.98-3.45 669.03 12.15 663.78 12.15ZM676.08-4.05Q679.33-4.05 681.08-6.13 682.83-8.2 682.83-11.45L682.83-11.45Q682.83-14.85 681.1-16.88 679.38-18.9 676.08-18.9L676.08-18.9Q674.28-18.9 672.7-18.03 671.13-17.15 670.2-15.53 669.28-13.9 669.28-11.75L669.28-11.75 669.28-11.4Q669.28-9.25 670.2-7.58 671.13-5.9 672.68-4.98 674.23-4.05 676.08-4.05L676.08-4.05ZM704.32 0.5Q701.22 0.5 698.6-0.98 695.97-2.45 694.4-5.18 692.82-7.9 692.82-11.55L692.82-11.55Q692.82-15.15 694.2-17.85 695.57-20.55 698.12-22.05 700.67-23.55 704.12-23.55L704.12-23.55Q706.12-23.55 707.87-22.85 709.62-22.15 710.82-21.13 712.02-20.1 712.42-19.1L712.42-19.1 712.52-22.95 717.67-22.95 717.67 0 712.57 0 712.47-4.05Q711.62-2.25 709.37-0.88 707.12 0.5 704.32 0.5L704.32 0.5ZM705.22-4Q708.07-4 710.02-5.98 711.97-7.95 711.97-11.15L711.97-11.15 711.97-11.5Q711.97-13.65 711.07-15.35 710.17-17.05 708.62-18 707.07-18.95 705.22-18.95L705.22-18.95Q702.02-18.95 700.27-16.88 698.52-14.8 698.52-11.5L698.52-11.5Q698.52-8.15 700.25-6.08 701.97-4 705.22-4L705.22-4ZM726.57 12.6L731.52 0.7 722.02-22.95 728.12-22.95 733.02-8.35 734.12-4.8 735.22-8.35 740.37-22.95 746.27-22.95 732.17 12.6 726.57 12.6ZM749.77 0L749.77-22.95 755.17-22.95 755.17-18.8Q756.27-21.15 758.39-22.35 760.52-23.55 763.27-23.55L763.27-23.55Q769.42-23.5 770.82-19.3L770.82-19.3Q771.92-21.25 774.12-22.4 776.32-23.55 778.77-23.55L778.77-23.55Q782.37-23.55 784.22-22.18 786.07-20.8 786.69-18.28 787.32-15.75 787.32-11.5L787.32-11.5 787.32 0 781.87 0 781.87-11.55Q781.87-15.6 781.04-17.35 780.22-19.1 777.87-19.1L777.87-19.1Q774.72-19.1 773.09-16.98 771.47-14.85 771.47-11.4L771.47-11.4 771.47 0 766.07 0 766.07-12.35Q766.07-15 765.87-16.3 765.67-17.6 764.77-18.35 763.87-19.1 761.87-19.1L761.87-19.1Q760.12-19.1 758.59-18.05 757.07-17 756.14-15.23 755.22-13.45 755.22-11.4L755.22-11.4 755.22 0 749.77 0ZM805.07 0.5Q800.97 0.5 798.22-1.13 795.47-2.75 794.17-5.48 792.87-8.2 792.87-11.45L792.87-11.45Q792.87-15.1 794.39-17.85 795.92-20.6 798.62-22.08 801.32-23.55 804.72-23.55L804.72-23.55Q810.02-23.55 812.59-20.63 815.17-17.7 815.17-12.4L815.17-12.4Q815.17-11.05 815.02-9.6L815.02-9.6 798.52-9.6Q799.07-6.55 800.69-5.2 802.32-3.85 805.22-3.85L805.22-3.85Q807.62-3.85 809.17-4.25 810.72-4.65 812.02-5.35L812.02-5.35 813.67-1.5Q812.42-0.7 810.27-0.1 808.12 0.5 805.07 0.5L805.07 0.5ZM798.52-13.35L809.92-13.35Q809.97-16.45 808.57-17.73 807.17-19 804.57-19L804.57-19Q799.32-19 798.52-13.35L798.52-13.35ZM820.81 0L820.81-22.95 826.11-22.95 826.16-18.75Q827.11-20.85 829.16-22.2 831.21-23.55 833.96-23.55L833.96-23.55Q837.51-23.55 839.41-22.08 841.31-20.6 841.96-17.95 842.61-15.3 842.61-11.05L842.61-11.05 842.61 0 837.21 0 837.21-10.9Q837.21-15.25 836.36-17.18 835.51-19.1 832.86-19.1L832.86-19.1Q831.36-19.1 829.81-18.18 828.26-17.25 827.24-15.5 826.21-13.75 826.21-11.4L826.21-11.4 826.21 0 820.81 0ZM851.56 0L851.56-18.55 847.51-18.55 847.51-22.95 851.56-22.95 851.56-32.3 857.01-33.5 857.01-22.95 862.31-22.95 862.31-18.55 857.01-18.55 857.01 0 851.56 0ZM874.61 0.5Q872.21 0.5 869.63-0.13 867.06-0.75 865.96-1.6L865.96-1.6 867.76-5.85Q870.76-3.75 874.61-3.75L874.61-3.75Q878.46-3.75 878.46-6L878.46-6Q878.46-7 877.66-7.55 876.86-8.1 874.81-8.85L874.81-8.85 872.91-9.55Q869.91-10.75 868.16-12.43 866.41-14.1 866.41-16.85L866.41-16.85Q866.41-20 868.88-21.78 871.36-23.55 875.51-23.55L875.51-23.55Q877.56-23.55 879.53-23.1 881.51-22.65 882.56-21.95L882.56-21.95 880.61-17.65Q879.96-18.3 878.53-18.78 877.11-19.25 875.36-19.25L875.36-19.25Q871.81-19.25 871.81-17.1L871.81-17.1Q871.81-15.9 872.76-15.28 873.71-14.65 875.86-13.9L875.86-13.9Q876.06-13.85 877.41-13.35L877.41-13.35Q880.61-12.1 882.16-10.5 883.71-8.9 883.71-6.4L883.71-6.4Q883.71-3 881.13-1.25 878.56 0.5 874.61 0.5L874.61 0.5Z" opacity="1" transform="matrix(1,0,0,1,0,0)" fill="#f5a1e8" class="slogan-text-1" data-fill-palette-color="secondary" id="text-1"></path></svg></g></svg></g></svg></g></svg></g><g transform="matrix(1,0,0,1,92.55022327045296,0)"><svg viewBox="0 0 210.41955345909406 210.41955345909406" height="210.41955345909406" width="210.41955345909406"><g><svg></svg></g><g id="icon-0"><svg viewBox="0 0 210.41955345909406 210.41955345909406" height="210.41955345909406" width="210.41955345909406"><g><path d="M0 105.21c0-58.106 47.104-105.21 105.21-105.21 58.106 0 105.21 47.104 105.21 105.21 0 58.106-47.104 105.21-105.21 105.21-58.106 0-105.21-47.104-105.21-105.21zM105.21 205.164c55.203 0 99.954-44.751 99.954-99.954 0-55.203-44.751-99.954-99.954-99.955-55.203 0-99.954 44.751-99.955 99.955 0 55.203 44.751 99.954 99.955 99.954z" data-fill-palette-color="accent" fill="#fff2ff" stroke="transparent"></path><ellipse rx="104.15767896225157" ry="104.15767896225157" cx="105.20977672954703" cy="105.20977672954703" fill="#fff2ff" stroke="transparent" stroke-width="0" fill-opacity="1" data-fill-palette-color="accent"></ellipse></g><g transform="matrix(1,0,0,1,43.79204123659806,43.17323832584384)"><svg viewBox="0 0 122.83547098589794 124.07307680740638" height="124.07307680740638" width="122.83547098589794"><g><svg xmlns="http://www.w3.org/2000/svg" xmlns:xlink="http://www.w3.org/1999/xlink" version="1.1" x="0" y="0" viewBox="6.1 5.000641038811883 89.2 90.09871792237624" style="enable-background:new 0 0 100 100;" xml:space="preserve" height="124.07307680740638" width="122.83547098589794" class="icon-dxe-0" data-fill-palette-color="quaternary" id="dxe-0"><path d="M95.3 68.9V84.6S85.8 80.7 84 80.7 80 82.3 80 82.3 60.5 94.3 57.7 94.8 52.1 95.2 47.6 94.3C43.7 93.5 31.1 88.7 25.9 86.7 25 86.4 24.8 85.2 25.4 84.5 26.2 83.6 27.2 83.1 27.2 83.1S28.8 82.3 30.3 82.2C31.3 82.1 33 82.3 34.5 82.6 33.2 80.9 31.8 78.9 31.3 77.8 32.8 76.7 34.1 76.8 35.1 77.3S38.5 79.8 39.4 80.8C40.1 81.5 41.5 83.8 42.3 85 43.4 85.3 44.5 85.6 45.3 85.8 47.9 86.4 52.4 86.6 54.3 85.7 56 84.8 59.6 81.1 60.4 80.5S60.9 79.3 60.3 79.1 57.2 79.5 55.5 79.6C54.2 79.7 51.8 79.9 50 79.6 48.8 79.4 46.2 78.8 45 77.6S43 73.5 43.8 72.1C45.4 72.3 46.4 72.6 47.4 72.8S51.1 73.1 52.8 72.5C54.5 71.8 63.3 67.4 66.1 66.9 68.9 66.3 78 64.1 83.5 65.2 88.9 66.2 95.3 68.9 95.3 68.9M18.1 34.9C23.6 36 32.7 33.8 35.5 33.2S47.1 28.3 48.8 27.6 53.1 27.1 54.2 27.3C55.2 27.5 56.3 27.8 57.8 28 58.6 26.7 57.8 23.7 56.6 22.5S52.7 20.8 51.6 20.5C49.7 20.2 47.4 20.3 46.1 20.5 44.4 20.7 41.9 21.3 41.3 21 40.7 20.8 40.5 20.2 41.2 19.6 42 19 45.6 15.2 47.3 14.4 49.2 13.4 53.7 13.7 56.3 14.3 57.2 14.5 58.2 14.8 59.3 15.1 60 16.3 61.5 18.6 62.2 19.3 63.1 20.3 65.5 22.3 66.5 22.8S68.7 23.5 70.3 22.3C69.8 21.3 68.3 19.2 67.1 17.5 68.6 17.8 70.3 18 71.3 17.9 72.8 17.8 74.4 17 74.4 17S75.3 16.4 76.2 15.6C76.9 14.9 76.6 13.8 75.7 13.4 70.5 11.4 58 6.5 54 5.8 49.6 4.9 46.7 4.8 43.9 5.3S21.5 17.8 21.5 17.8 19.3 19.4 17.5 19.4 6.1 15.4 6.1 15.4V31.1S12.5 33.8 18.1 34.9M63 50.1C63 43.4 57.5 37.9 50.8 37.9S38.6 43.4 38.6 50.1 44 62.3 50.7 62.3 63 56.9 63 50.1M60.9 50.1C60.9 55.7 56.3 60.3 50.7 60.3S40.5 55.7 40.5 50.1 45.1 40 50.7 40 60.9 44.5 60.9 50.1M50.7 57.2C51.2 57.2 51.6 56.8 51.6 56.3V55.4C53.6 55.1 54.7 53.7 54.7 52.2 54.7 50.6 53.9 49.7 51.8 48.9 50.3 48.3 49.7 48 49.7 47.4 49.7 46.9 50.1 46.4 51.2 46.4 51.8 46.4 52.3 46.5 52.7 46.6 53.2 46.8 53.8 46.4 53.9 45.9S53.7 44.8 53.2 44.7C52.8 44.6 52.3 44.5 51.6 44.5V43.8C51.6 43.3 51.2 42.9 50.7 42.9S49.8 43.3 49.8 43.8V44.6C48.1 45 47 46.2 47 47.8 47 49.5 48.3 50.4 50.1 51 51.4 51.4 51.9 51.9 51.9 52.5 51.9 53.2 51.2 53.6 50.2 53.6 49.5 53.6 48.9 53.5 48.3 53.3S47.1 53.4 47 54V54.1C46.9 54.6 47.2 55.1 47.7 55.3 48.3 55.5 49 55.6 49.8 55.7V56.5C49.8 56.9 50.2 57.2 50.7 57.2" fill="#581381" data-fill-palette-color="quaternary"></path></svg></g></svg></g></svg></g></svg></g><g></g></svg></g><defs></defs></svg><rect width="301.91747373767976" height="247.2" fill="none" stroke="none" visibility="hidden"></rect></g></svg></g></svg>